<svg width="750" height="750" viewBox="0 0 750 750" fill="none" xmlns="http://www.w3.org/2000/svg">
<path fill-rule="evenodd" clip-rule="evenodd" d="M547.67 462.866C536.763 467.131 524.145 473.532 522.975 485.185C537.791 473.786 556.094 466.983 574.759 465.938C561.864 482.184 545.582 495.729 527.261 505.451C510.807 514.182 489.976 523.494 488.565 542.067C506.235 521.025 533.404 508.286 560.881 508.159C543.302 533.906 515.114 552.169 484.431 557.69C485.484 565.602 519.504 582.548 529.413 585.809C536.47 616.126 539.527 655.442 546.584 685.759C548.32 693.22 549.849 701.792 545.281 707.941C540.749 714.04 532.19 715.09 524.61 715.628C494.736 717.752 453.863 719.876 423.989 721.999C420.412 705.795 416.836 689.591 413.259 673.386C362.868 678.065 146.841 727.569 107.197 701.599C-45.8418 601.345 149.31 567.194 153.504 445.135C154.465 417.148 70.3189 368.226 71.6549 339.628C72.5273 320.954 75.4181 302.713 84.6572 286.678C93.8963 270.644 108.537 258.292 124.449 248.844C102.541 243.213 85.9478 221.375 86.3917 198.76C86.8357 176.145 104.274 154.975 126.385 150.209C115.96 137.785 99.5445 132.091 87.554 121.171C73.586 108.45 66.5669 87.93 71.6549 69.7355C76.7429 51.541 94.6572 37.2259 113.533 38.0325C129.037 38.6951 142.681 48.5013 153.504 59.6233C170.288 76.8722 182.771 98.2757 189.52 121.378C194.018 136.776 210.504 144.609 224.427 152.578C238.35 160.547 252.808 174.428 248.885 189.982C243.699 168.697 320.777 194.05 390.681 200.257C399.963 201.081 409.951 202.28 416.812 208.585C426.672 217.645 441.475 220.95 454.251 216.943C458.316 227.02 461.307 238.339 457.851 248.641C454.396 258.943 442.156 266.806 432.372 262.08C434.926 275.219 437.48 288.359 440.034 301.498C465.05 301.799 490.063 302.31 515.071 303.031C528.325 303.413 542.178 304.016 553.698 310.582C565.217 317.149 580.635 307.846 592.018 283.945C584.651 322.945 593.379 338.528 608.431 342.765C608.462 342.47 609.632 342.611 609.666 342.316C614.147 303.776 640.299 269.557 676.695 256.02C673.476 263.436 650.448 278.085 634.457 296.792C618.837 315.065 611.361 339.528 610.587 343.921C635.388 337.418 643.657 355.895 685.735 339.628C666.507 362.745 629.455 368.437 604.175 352.157C592.249 365.458 592.916 380.186 584.467 395.927C598.819 378.09 617.876 393.904 602.758 405.465C610.782 406.236 619.458 407.293 625.278 412.87C631.098 418.447 631.243 430.185 623.736 433.121C598.381 443.036 573.025 452.951 547.67 462.866Z" fill="#D09EFF"/>
<path fill-rule="evenodd" clip-rule="evenodd" d="M506.512 374.97C507.43 373.225 508.427 371.395 510.116 370.378C511.805 369.361 514.396 369.571 515.306 371.321C516.273 373.182 514.833 375.426 513.143 376.669C511.452 377.912 509.373 378.787 508.274 380.575C514.212 384.487 520.149 388.4 526.086 392.312C530.736 395.376 535.997 399.752 535.045 405.239C534.487 408.456 531.761 410.957 528.724 412.157C525.687 413.358 522.349 413.483 519.085 413.577C497.15 414.209 475.193 414.097 453.265 413.243C451.744 413.184 450.047 413.042 449.033 411.906C448.248 411.026 448.086 409.77 447.959 408.598C446.697 396.926 445.435 385.255 444.173 373.584C444.126 373.153 444.082 372.703 444.236 372.297C444.885 370.593 447.435 371.643 448.86 372.781C458.954 380.838 475.092 379.891 484.175 370.709C486.369 368.491 490.106 368.778 492.925 370.115C495.745 371.453 498.104 373.629 500.932 374.947C500.63 373.312 502.072 371.586 503.735 371.593C505.398 371.6 506.827 373.337 506.512 374.97Z" fill="white"/>
<path fill-rule="evenodd" clip-rule="evenodd" d="M153.277 246.155C153.277 246.155 150.827 216.805 156.995 207.37C163.162 197.935 186.656 195.095 186.656 195.095C186.656 195.095 251.047 194.253 285.837 195.583C320.627 196.913 390.207 202.876 390.207 202.876C390.207 202.876 399.248 204.848 403.312 207.37C407.376 209.893 413.045 217.05 413.045 217.05C413.045 217.05 425.381 218.849 431.518 219.093C437.654 219.338 443.277 218.255 443.277 218.255C443.277 218.255 451.097 241.063 445.568 251.935C440.039 262.806 421.476 261.12 421.476 261.12L428.047 301.806C428.047 301.806 420.234 305.498 415.965 310.127C411.695 314.757 409.98 321.395 409.98 321.395L422.671 445.135C422.671 445.135 426.404 451.567 434.423 454.01C442.442 456.452 460.509 456.66 460.509 456.66C460.509 456.66 459.865 469.137 460.509 474.507C461.153 479.876 461.727 482.818 461.727 482.818L475.329 580.196C475.329 580.196 462.109 582.601 449.027 585.775C435.945 588.949 409.98 596.05 409.98 596.05C409.98 596.05 400.828 600.223 399.642 606.961C398.457 613.698 403.312 633.946 403.312 633.946L257.554 645.056C257.554 645.056 243.37 645.323 238.491 642.249C233.612 639.175 232.275 629.128 232.275 629.128L212.56 451.807C212.56 451.807 181.056 452.578 171.854 447.325C162.653 442.071 161.54 422.677 161.54 422.677C161.54 422.677 163.069 411.684 161.54 404.055C161.03 401.51 154.367 373.916 152.129 347.661C150.862 332.804 168.344 321.395 168.344 321.395L153.277 246.155Z" fill="white"/>
<path fill-rule="evenodd" clip-rule="evenodd" d="M256.125 205.334C254.991 206.932 255.94 209.315 257.578 210.39C259.216 211.465 261.279 211.586 263.236 211.674C284.5 212.631 305.764 213.588 327.027 214.545C329.099 214.638 331.394 214.659 332.964 213.303C334.533 211.948 334.326 208.715 332.278 208.39C308.633 204.63 284.639 203.069 260.706 203.733C259.026 203.779 257.097 203.963 256.125 205.334Z" fill="#E7EAEE"/>
<path fill-rule="evenodd" clip-rule="evenodd" d="M350.732 357.74L345.206 331.809C345.206 331.809 344.948 337.156 342.023 339.331C339.097 341.506 333.313 340.651 333.313 340.651C333.313 340.651 332.397 322.543 336.468 317.029C340.54 311.515 344.551 316.723 352.285 314.959C360.012 313.197 358.411 307.392 367.39 309.977C376.369 312.562 383.003 331.778 383.003 331.778C383.003 331.778 375.963 334.137 372.967 333.532C369.972 332.927 370.702 329.293 370.702 329.293C370.702 329.293 368.579 328.39 369.12 334.761C369.383 337.856 371.726 342.51 372.967 348.599C373.43 350.866 372.967 355.961 372.967 355.961C372.967 355.961 364.978 356.776 358.074 358.254C351.17 359.732 350.732 357.74 350.732 357.74Z" fill="#E7EAEE"/>
<path fill-rule="evenodd" clip-rule="evenodd" d="M154.555 293.238C151.896 291.807 149.733 289.622 147.614 287.471C142.146 281.921 136.61 276.281 132.816 269.476C132.455 268.828 132.1 268.084 132.308 267.372C132.516 266.66 133.603 266.256 134.01 266.876C140.604 276.943 148.932 285.872 158.516 293.151C157.654 294.31 155.827 293.923 154.555 293.238Z" fill="#00160A"/>
<path fill-rule="evenodd" clip-rule="evenodd" d="M162.521 165.821C164.092 164.202 164.93 162.025 165.653 159.888C167.909 153.226 169.446 146.321 170.23 139.331C170.371 138.072 170.602 136.622 171.694 135.98C172.923 141.974 171.401 148.151 169.888 154.079C168.558 159.29 167.085 164.762 163.313 168.596C162.931 168.984 162.443 169.379 161.907 169.29C161.183 169.169 160.893 168.207 161.151 167.52C161.41 166.834 162.01 166.347 162.521 165.821Z" fill="#00160A"/>
<path fill-rule="evenodd" clip-rule="evenodd" d="M541.723 218.097C542.47 217.897 543.232 218.487 543.558 219.189C543.884 219.891 543.908 220.688 544.053 221.449C544.62 224.419 547.298 226.857 550.309 227.143C550.684 228.016 549.854 228.889 549.198 229.576C547.704 231.138 546.761 233.218 546.569 235.371C546.444 236.769 546.15 238.713 544.748 238.695C543.62 238.68 543.125 237.317 542.719 236.265C541.727 233.696 539.49 231.641 536.846 230.871C536.291 230.709 536.057 230 536.21 229.442C536.363 228.885 536.786 228.449 537.189 228.035C538.927 226.252 540.69 224.142 540.671 221.653C540.661 220.307 540.422 218.445 541.723 218.097Z" fill="#FFB61D"/>
<path fill-rule="evenodd" clip-rule="evenodd" d="M594.379 451.901C592.046 454.298 591.22 458.05 592.33 461.205C591.101 461.755 590.182 460.061 589.573 458.859C588.661 457.056 586.935 455.684 584.973 455.201C587.815 453.408 589.584 450.034 589.442 446.676C590.585 445.931 591.864 447.483 592.192 448.808C592.521 450.132 593.015 451.854 594.379 451.901Z" fill="#E7EAEE"/>
<path fill-rule="evenodd" clip-rule="evenodd" d="M574.473 456.396C575.826 458.542 577.749 460.325 579.992 461.512C580.798 461.938 580.067 463.124 579.402 463.747C577.725 465.314 576.664 467.523 576.487 469.811C575.02 468.341 573.554 466.872 572.088 465.402C571.503 464.815 570.885 463.905 571.389 463.248C572.927 461.243 573.992 458.877 574.473 456.396Z" fill="#E7EAEE"/>
<path fill-rule="evenodd" clip-rule="evenodd" d="M476.523 197.942C477.857 189.444 481.083 181.092 486.749 174.62C492.416 168.148 500.689 163.73 509.291 163.737C517.893 163.744 526.581 168.616 530.156 176.44C532.005 180.489 532.459 185.046 532.333 189.496C532.094 197.957 529.821 206.355 525.76 213.782C522.097 220.479 516.832 226.504 509.997 229.901C503.161 233.299 494.642 233.755 487.997 229.999C482.735 227.025 479.054 221.687 477.3 215.903C475.546 210.119 475.585 203.913 476.523 197.942ZM529.099 191.511C529.254 186.242 528.385 180.801 525.614 176.317C523.93 173.591 521.57 171.285 518.806 169.663C509.891 164.435 497.757 167.244 490.352 174.454C482.948 181.664 479.738 192.319 479.407 202.649C479.231 208.159 479.823 213.809 482.166 218.799C484.509 223.789 488.795 228.058 494.135 229.429C501.121 231.223 508.494 227.845 513.972 223.152C523.112 215.323 528.745 203.541 529.099 191.511Z" fill="#FFB61D"/>
<path fill-rule="evenodd" clip-rule="evenodd" d="M564.552 192.041C563.13 193.901 561.642 196.344 562.734 198.415C563.124 199.156 562.114 200.018 561.31 199.785C560.505 199.551 560.048 198.701 559.834 197.891C559.62 197.081 559.55 196.213 559.121 195.494C558.691 194.775 557.715 194.275 557.004 194.718C555.993 194.598 555.889 193.074 556.477 192.242C557.065 191.41 558.031 190.838 558.392 189.886C558.678 189.131 558.525 188.285 558.66 187.49C558.796 186.695 559.473 185.846 560.253 186.049C560.227 187.447 560.389 188.897 561.098 190.101C561.807 191.306 563.164 192.207 564.552 192.041Z" fill="#FFB61D"/>
<path fill-rule="evenodd" clip-rule="evenodd" d="M437.304 189.288C438.416 187.995 439.813 186.888 441.452 186.417C443.091 185.946 444.993 186.195 446.273 187.322C447.666 188.548 448.103 190.597 447.807 192.429C447.51 194.261 446.586 195.926 445.614 197.506C444.353 199.557 442.983 201.542 441.512 203.449C441.053 204.044 440.549 204.658 439.845 204.924C438.916 205.274 437.88 204.933 436.963 204.55C433.743 203.204 430.749 201.315 428.148 198.988C425.766 196.857 423.568 193.734 424.534 190.687C425.149 188.745 427.027 187.341 429.041 187.041C431.055 186.741 433.143 187.451 434.744 188.709C435.511 189.31 436.669 190.027 437.304 189.288ZM427.13 190.416C425.609 192.508 427.26 195.44 429.176 197.177C431.568 199.345 434.407 200.946 437.22 202.529C437.581 202.733 437.985 202.943 438.39 202.856C438.752 202.778 439.02 202.482 439.258 202.199C441.163 199.941 442.87 197.516 444.352 194.96C445.492 192.995 446.329 190.106 444.492 188.768C443.039 187.709 440.921 188.562 439.689 189.872C438.457 191.181 437.682 192.891 436.335 194.083C435.284 192.425 434.166 190.704 432.461 189.731C430.756 188.759 428.284 188.828 427.13 190.416Z" fill="#FFB61D"/>
<path fill-rule="evenodd" clip-rule="evenodd" d="M415.523 132.102C419.01 129.384 422.887 127.166 426.998 125.538C429.518 124.54 432.394 123.772 434.885 124.841C438.876 126.553 439.654 132.285 437.554 136.086C435.454 139.888 431.471 142.193 427.679 144.311C420.243 148.464 412.807 152.617 405.372 156.77C406.836 153.848 405.184 150.417 403.831 147.441C400.783 140.739 399.189 133.381 399.188 126.019C399.187 123.693 399.361 121.298 400.381 119.208C401.402 117.118 403.437 115.384 405.763 115.33C409.483 115.242 411.957 119.117 413.212 122.62C414.311 125.688 415.087 128.872 415.523 132.102ZM431.282 126.774C425.268 127.996 419.665 131.16 415.513 135.678C415.104 136.123 414.309 135.927 413.935 135.452C413.562 134.977 413.49 134.339 413.419 133.739C412.951 129.765 411.911 125.858 410.343 122.175C409.468 120.123 408.004 117.856 405.773 117.82C404.12 117.793 402.681 119.117 402.071 120.654C401.461 122.191 401.513 123.902 401.63 125.552C402.282 134.751 404.703 143.823 408.72 152.124C415.298 148.438 421.876 144.752 428.454 141.066C430.507 139.915 432.596 138.737 434.191 137.008C435.787 135.279 436.837 132.877 436.373 130.571C435.91 128.264 433.588 126.306 431.282 126.774Z" fill="#FFB61D"/>
<path fill-rule="evenodd" clip-rule="evenodd" d="M369.493 587.766C388.692 585.579 408.016 584.477 427.339 584.469C430.884 584.468 433.968 581.714 435.408 578.475C436.848 575.236 436.963 571.583 436.965 568.038C436.972 554.868 435.733 541.732 434.496 528.62C433.994 523.303 433.493 517.986 432.991 512.668C432.686 509.442 432.363 506.143 431.005 503.201C428.647 498.095 423.426 494.775 417.987 493.345C412.548 491.915 406.831 492.11 401.211 492.316C382.551 492.999 363.891 493.683 345.23 494.366C355.987 490.421 367.702 490.236 379.159 490.096C387.942 489.989 396.725 489.882 405.508 489.774C414.485 489.665 424.743 490.115 430.47 497.03C434.17 501.497 434.986 507.613 435.605 513.38C437.552 531.538 438.978 549.753 439.881 567.992C440.181 574.037 439.939 581.141 435.017 584.663C432.264 586.632 428.693 586.928 425.316 587.157C404.752 588.55 384.188 589.942 363.624 591.335C358.796 591.662 353.708 591.942 349.364 589.808C347.855 589.066 346.305 587.39 347.115 585.917C353.8 589.557 361.93 588.628 369.493 587.766Z" fill="#00160A"/>
<path fill-rule="evenodd" clip-rule="evenodd" d="M288.166 296.484C288.551 297.06 288.639 297.778 288.716 298.466C288.896 300.068 289.076 301.671 289.256 303.274C289.47 305.175 289.514 307.475 287.937 308.56C287.097 309.138 286.013 309.185 284.994 309.213C263.542 309.793 242.091 310.372 220.64 310.952C219.26 310.989 217.663 310.929 216.817 309.838C216.286 309.154 216.204 308.233 216.155 307.368C215.998 304.65 215.955 301.927 216.024 299.206C216.035 298.791 216.059 298.346 216.316 298.021C216.624 297.631 217.167 297.536 217.659 297.469C239.824 294.466 262.287 293.674 284.608 295.106C285.926 295.191 287.432 295.387 288.166 296.484ZM287.285 306.91C285.106 305.733 287.301 302.283 286.509 299.937C285.828 297.922 283.242 297.445 281.118 297.324C260.892 296.172 240.56 296.891 220.465 299.467C219.725 299.562 218.904 299.704 218.455 300.3C218.011 300.889 218.091 301.706 218.192 302.436C218.349 303.566 218.505 304.696 218.661 305.827C218.785 306.717 218.973 307.716 219.721 308.215C220.264 308.577 220.962 308.573 221.614 308.557C243.504 308.008 265.395 307.459 287.285 306.91Z" fill="#00160A"/>
<path fill-rule="evenodd" clip-rule="evenodd" d="M328.518 334.461C328.62 332.081 328.722 329.7 328.824 327.319C329.023 322.676 329.267 317.86 331.425 313.745C333.582 309.629 338.24 306.431 342.762 307.5C345.591 308.169 348.199 310.393 351.044 309.796C353.522 309.276 355.041 306.827 357.134 305.403C362.122 302.009 369.076 305.162 373.202 309.565C377.648 314.311 380.538 320.491 381.33 326.946C381.397 327.494 381.431 328.109 381.078 328.534C380.786 328.885 380.307 329.007 379.862 329.109C378.145 329.503 376.427 329.896 374.71 330.289C373.248 330.624 371.73 330.96 370.261 330.656C368.792 330.352 367.381 329.219 367.263 327.724C366.824 336.082 373.083 344.066 371.339 352.252C370.691 351.898 370.042 351.543 369.394 351.189C370.924 342.98 363.608 335.033 365.136 326.824C365.338 325.737 365.774 324.581 366.745 324.053C367.716 323.526 369.252 324.125 369.214 325.23C369.153 326.999 371.063 328.321 372.833 328.306C374.604 328.291 376.214 327.342 377.726 326.421C378.265 326.094 378.118 325.283 377.893 324.694C376.219 320.303 374.019 316.113 371.354 312.242C369.552 309.626 367.382 307.04 364.389 305.978C361.395 304.915 357.442 305.999 356.34 308.978C355.05 312.465 350.177 312.7 346.598 311.695C343.019 310.689 339.001 309.12 335.808 311.023C333.138 312.615 332.244 316.007 331.744 319.075C330.886 324.339 330.489 329.678 330.561 335.011C330.706 335.825 331.744 336.087 332.57 336.066C336.924 335.953 340.966 332.519 341.782 328.241C342.955 329.59 343.374 331.418 343.753 333.165C345.067 339.216 346.382 345.267 347.696 351.318C348.1 353.181 347.628 356.044 345.752 355.705C344.902 349.105 343.643 342.559 341.985 336.115C338.849 336.828 335.714 337.54 332.578 338.253C331.616 338.472 330.539 338.674 329.698 338.16C328.536 337.45 328.46 335.822 328.518 334.461Z" fill="#00160A"/>
<path fill-rule="evenodd" clip-rule="evenodd" d="M420.246 498.803C421.846 500.537 419.36 503.737 420.826 505.586C421.586 506.545 421.044 508.067 420.036 508.762C419.029 509.457 417.738 509.551 416.516 509.622C395.509 510.842 374.502 512.063 353.495 513.284C352.067 513.367 350.361 513.318 349.581 512.12C349.24 511.596 349.157 510.951 349.084 510.331C348.892 508.717 348.7 507.102 348.508 505.488C348.448 504.981 348.394 504.438 348.633 503.987C349.026 503.243 350.001 503.082 350.839 503.008C372.917 501.059 395.02 499.412 417.143 498.066C418.242 498 419.499 497.993 420.246 498.803ZM417.835 501.53C417.767 501.131 417.677 500.695 417.358 500.446C417.041 500.198 416.597 500.216 416.195 500.245C396.607 501.673 377.02 503.101 357.432 504.529C355.848 504.644 354.206 504.777 352.823 505.556C351.44 506.336 350.398 507.962 350.813 509.494C350.941 509.968 351.216 510.419 351.636 510.674C352.151 510.987 352.795 510.964 353.397 510.931C374.078 509.809 394.758 508.688 415.439 507.566C417.897 507.432 418.251 503.956 417.835 501.53Z" fill="#00160A"/>
<path fill-rule="evenodd" clip-rule="evenodd" d="M436.821 479.992C440.539 489.776 441.725 500.309 442.88 510.712C445.564 534.881 448.247 559.049 450.931 583.218C448.934 583.382 448.014 580.819 447.765 578.831C443.7 546.312 442.391 513.374 435.516 481.331C435.951 480.885 436.386 480.438 436.821 479.992Z" fill="#00160A"/>
<path fill-rule="evenodd" clip-rule="evenodd" d="M316.884 311.638C316.305 311.391 316.317 310.488 316.76 310.042C317.204 309.597 317.876 309.489 318.5 309.41C323.171 308.816 327.881 308.527 332.589 308.545C332.339 310.554 329.745 311.141 327.722 311.234C324.325 311.391 320.927 311.548 317.529 311.705C317.311 311.715 317.084 311.724 316.884 311.638Z" fill="#00160A"/>
<path fill-rule="evenodd" clip-rule="evenodd" d="M343.236 557.42C342.848 550.227 342.46 543.033 342.072 535.84C341.028 516.478 339.951 496.918 334.561 478.292C333.873 475.914 333.087 473.5 331.562 471.55C327.746 466.667 320.682 466.106 314.485 466.106C290.591 466.107 266.698 468.379 243.232 472.882C240.848 473.34 238.369 473.865 236.466 475.373C233.443 477.77 232.646 481.983 232.365 485.831C231.852 492.855 232.36 499.954 233.867 506.834C233.004 506.69 232.142 506.547 231.28 506.403C228.118 499.817 226.677 492.414 227.139 485.124C227.34 481.958 227.922 478.734 229.553 476.013C233.611 469.246 242.542 467.623 250.387 466.783C270.292 464.651 290.271 463.215 310.276 462.479C318.329 462.182 327.427 462.408 332.954 468.272C335.733 471.222 337.141 475.186 338.246 479.085C342.085 492.632 343.144 506.787 344.184 520.829C345.2 534.549 346.216 548.269 347.232 561.988C347.471 565.213 347.707 568.488 347.055 571.655C344.929 581.974 333.939 588.251 323.477 589.499C313.015 590.747 302.483 588.356 291.948 588.181C277.781 587.945 263.53 591.712 249.558 589.359C245.534 588.681 241.255 587.255 239.043 583.826C237.508 581.447 237.231 578.498 236.997 575.677C235.339 555.778 233.682 535.878 232.025 515.979C231.914 514.647 232.905 512.66 233.929 513.521C235.756 532.688 237.583 551.856 239.41 571.023C239.657 573.618 239.926 576.288 241.132 578.599C242.883 581.953 246.416 584.086 250.078 585.035C253.741 585.985 257.58 585.908 261.364 585.858C277.371 585.649 293.386 586.048 309.363 587.053C314.707 587.389 320.107 587.79 325.385 586.894C330.663 585.997 335.9 583.646 339.177 579.411C343.843 573.381 343.647 565.034 343.236 557.42Z" fill="#00160A"/>
<path fill-rule="evenodd" clip-rule="evenodd" d="M316.07 303.858C317.56 302.696 316.307 300.315 316.601 298.448C317.016 295.808 320.302 294.901 322.958 294.594C340.013 292.623 357.189 291.691 374.357 291.804C375.786 291.814 377.475 291.973 378.194 293.207C379.058 294.689 378.253 297.276 379.888 297.795C380.656 298.038 381.64 297.588 382.222 298.145C383.184 299.065 381.392 300.31 380.066 300.429C359.974 302.232 339.839 303.551 319.683 304.386C318.45 304.437 317.143 304.469 316.07 303.858ZM376.086 295.538C375.617 294.358 374.046 294.185 372.777 294.204C356.59 294.451 340.411 295.251 324.279 296.603C322.388 296.761 320.155 297.156 319.367 298.882C318.988 299.864 319.71 300.993 320.664 301.438C321.617 301.884 322.719 301.826 323.769 301.76C339.884 300.738 355.999 299.715 372.114 298.693C373.106 298.63 374.14 298.555 374.995 298.048C375.85 297.542 376.453 296.461 376.086 295.538Z" fill="#00160A"/>
<path fill-rule="evenodd" clip-rule="evenodd" d="M397.81 532.012C400.296 533.987 399.233 538.313 401.395 540.638C402.4 541.718 403.906 542.14 405.322 542.555C406.232 542.821 407.359 543.49 407.07 544.393C406.773 545.318 405.425 545.169 404.521 544.815C401.567 543.658 398.237 541.734 398.074 538.566C397.955 536.254 397.268 533.973 396.09 531.98C396.421 531.419 397.3 531.607 397.81 532.012Z" fill="#00160A"/>
<path fill-rule="evenodd" clip-rule="evenodd" d="M409.562 564.771C408.752 554.347 407.943 543.922 407.133 533.497C407.014 531.965 406.879 530.376 406.12 529.04C405.361 527.703 403.789 526.696 402.305 527.095C395.589 528.896 388.616 529.731 381.665 529.567C375.587 529.423 369.368 528.535 363.521 530.199C363.63 533.095 363.739 535.99 363.847 538.885C363.879 539.731 363.927 540.628 364.408 541.324C365.756 543.275 369.104 541.788 369.864 539.541C370.625 537.295 369.938 534.838 370.069 532.469C370.092 532.05 370.176 531.573 370.533 531.351C371.291 530.879 372.02 532.005 372.215 532.877C372.772 535.375 373.329 537.99 372.671 540.464C372.013 542.938 369.718 545.179 367.179 544.852C364.549 544.513 363.472 548.108 363.409 550.76C363.282 556.052 363.154 561.343 363.027 566.635C362.987 568.301 363.587 570.602 365.242 570.414C369.516 569.93 373.789 569.445 378.063 568.961C379.096 568.844 380.207 568.741 381.115 569.246C382.023 569.751 382.504 571.127 381.76 571.852C376.74 572.292 371.72 572.732 366.701 573.172C365.235 573.3 363.713 573.422 362.33 572.919C360.947 572.417 359.743 571.101 359.868 569.635C361.103 555.239 361.379 540.762 360.695 526.329C360.549 523.259 364.289 521.7 367.31 521.134C376.9 519.336 386.679 518.556 396.432 518.812C399.702 518.898 403.266 519.222 405.637 521.475C408.052 523.769 408.525 527.383 408.858 530.696C410.106 543.115 411.353 555.533 412.601 567.951C412.668 568.621 412.684 569.417 412.149 569.825C411.829 570.068 411.4 570.094 410.999 570.111C406.836 570.284 402.674 570.457 398.512 570.63C396.306 570.722 393.933 570.769 392.097 569.544C390.838 568.704 390.005 567.369 389.274 566.044C387.519 562.864 386.117 559.491 385.101 556.004C383.509 559.99 382.501 564.208 382.12 568.483C380.108 568.701 379.734 565.683 380.202 563.714C381.167 559.652 382.132 555.591 383.097 551.529C383.244 550.911 383.478 550.193 384.084 550.003C384.976 549.722 385.661 550.79 385.987 551.667C387.347 555.32 388.706 558.973 390.066 562.626C391.236 565.77 394.61 567.66 397.943 568.047C401.275 568.435 404.614 567.596 407.864 566.764C408.507 566.599 409.237 566.362 409.487 565.747C409.611 565.442 409.587 565.1 409.562 564.771ZM364.28 526.602C367.294 526.641 370.308 526.68 373.322 526.719C375.587 526.749 377.852 526.778 380.116 526.735C388.291 526.581 396.447 525.485 404.372 523.475C402.604 521.66 399.768 521.558 397.236 521.603C388.17 521.765 379.112 522.293 370.089 523.183C367.674 523.422 364.673 524.208 364.28 526.602Z" fill="#00160A"/>
<path fill-rule="evenodd" clip-rule="evenodd" d="M350.79 518.796C350.617 517.854 351.84 517.339 352.787 517.192C363.722 515.497 374.804 514.748 385.868 514.956C386.027 514.959 386.19 514.963 386.337 515.024C386.856 515.241 386.832 516.058 386.419 516.441C386.007 516.824 385.401 516.889 384.84 516.931C374.304 517.721 363.614 517.315 353.292 519.568C352.333 519.778 350.966 519.761 350.79 518.796Z" fill="#00160A"/>
<path fill-rule="evenodd" clip-rule="evenodd" d="M595.343 496.154C595.947 494.73 596.613 493.226 597.895 492.36C598.976 491.629 600.331 491.468 601.629 491.327C605.479 490.909 609.329 490.491 613.179 490.073C615.083 489.866 617.541 489.064 617.468 487.15C617.235 480.969 617.713 473.85 622.623 470.089C627.115 466.648 633.841 467.592 638.449 470.874C643.058 474.157 645.978 479.27 648.496 484.337C649.611 486.581 652.665 486.99 655.134 486.557C657.602 486.125 660.104 485.154 662.539 485.745C666.288 486.655 668.183 490.75 669.471 494.387C675.937 512.636 680.326 531.662 688.368 549.274C691.376 555.861 690.424 564.081 685.99 569.806C685.443 565.26 686.205 560.564 688.161 556.423C689.083 554.473 686.015 553.19 683.857 553.196C661.872 553.252 639.792 553.315 618.05 556.576C617.386 556.676 616.68 556.798 616.185 557.252C615.704 557.692 615.516 558.36 615.35 558.991C614.676 561.552 614.002 564.112 613.328 566.673C612.905 568.277 613.17 570.768 614.821 570.601C636.339 568.422 657.973 567.383 679.601 567.489C681.876 567.5 684.981 568.403 684.686 570.658C661.646 570.93 638.521 571.208 615.73 574.6C612.101 575.14 609.595 570.646 610.006 567C610.418 563.354 612.509 560.084 613.098 556.462C613.606 553.341 612.971 550.158 612.287 547.07C611.2 542.162 609.985 537.282 608.645 532.437C607.337 527.708 605.909 523.014 604.481 518.32C602.322 511.221 600.162 504.121 598.003 497.021C595.033 501.37 593.71 506.815 594.353 512.041C594.801 515.68 596.15 519.136 597.161 522.661C598.606 527.699 599.364 532.904 600.119 538.091C601.605 548.307 603.092 558.523 604.578 568.74C604.797 570.243 604.365 572.458 602.862 572.236C596.18 551.565 598.015 528.711 590.129 508.469C591.867 504.364 593.605 500.259 595.343 496.154ZM645.11 499.904C647.287 498.693 648.415 495.866 647.668 493.489C646.922 491.111 644.381 489.436 641.901 489.687C635.822 490.303 629.743 490.919 623.664 491.535C623.102 491.592 622.474 491.685 622.137 492.137C621.871 492.494 621.866 492.976 621.891 493.42C622.053 496.198 623.017 498.925 624.637 501.187C625.896 502.945 627.637 505.049 626.654 506.975C625.426 509.381 621.389 508.032 620.388 505.523C619.387 503.014 620.099 500.182 619.913 497.487C619.727 494.791 617.79 491.689 615.125 492.137C610.756 492.873 606.387 493.608 602.017 494.344C601.39 494.45 600.571 494.837 600.755 495.446C606.076 513.057 611.396 530.668 616.717 548.28C617.38 550.475 618.875 553.191 621.107 552.67C641.601 547.884 663.209 552.41 684.018 549.265C677.784 529.719 671.335 510.243 664.67 490.839C664.474 490.267 664.251 489.658 663.762 489.301C663.221 488.905 662.493 488.917 661.824 488.945C658.702 489.078 655.581 489.21 652.46 489.342C651.225 489.394 649.541 489.983 649.812 491.189C650.66 494.97 651.508 498.752 652.357 502.533C652.503 503.183 652.646 503.88 652.403 504.501C651.743 506.191 649.254 505.765 647.594 505.033C646.505 504.554 645.359 504.028 644.686 503.046C644.013 502.065 644.069 500.483 645.11 499.904ZM637.065 472.47C634.671 470.714 631.523 469.447 628.761 470.535C627.798 470.914 626.962 471.551 626.14 472.18C624.677 473.301 623.169 474.473 622.305 476.101C621.502 477.616 621.336 479.377 621.186 481.086C621.055 482.579 620.924 484.072 620.792 485.565C620.711 486.491 620.678 487.555 621.349 488.198C621.993 488.815 623.004 488.77 623.892 488.686C630.25 488.081 636.608 487.476 642.967 486.871C643.873 486.785 644.98 486.539 645.219 485.66C645.313 485.314 645.237 484.945 645.152 484.596C643.98 479.778 641.063 475.403 637.065 472.47ZM634.684 488.266C634.044 488.447 634.755 489.647 635.221 489.172C635.816 488.928 635.156 487.81 634.655 488.213L634.684 488.266Z" fill="#FFB61D"/>
<path fill-rule="evenodd" clip-rule="evenodd" d="M433.096 345.331C432.985 344.959 433.206 344.57 433.467 344.282C434.748 342.872 436.893 342.767 438.798 342.762C450.351 342.736 461.905 342.709 473.458 342.682C474.271 342.68 475.142 342.696 475.806 343.166C476.469 343.635 476.729 344.743 476.091 345.248C475.752 345.516 475.284 345.533 474.852 345.538C461.43 345.687 448.008 345.836 434.586 345.985C434.002 345.991 433.263 345.892 433.096 345.331Z" fill="#00160A"/>
<path fill-rule="evenodd" clip-rule="evenodd" d="M437.379 357.259C436.683 356.858 436.779 355.736 437.364 355.186C437.95 354.637 438.803 354.507 439.6 354.411C444.383 353.835 449.192 353.518 453.999 353.201C456.647 353.027 459.295 352.852 461.943 352.678C465.386 352.451 468.829 352.224 472.272 351.997C473.366 351.925 474.587 351.894 475.41 352.617C476.234 353.34 476.033 355.08 474.939 355.147C462.788 355.9 450.636 356.653 438.485 357.406C438.108 357.429 437.706 357.447 437.379 357.259Z" fill="#00160A"/>
<path fill-rule="evenodd" clip-rule="evenodd" d="M502.512 372.97C503.43 371.225 504.427 369.395 506.116 368.378C507.805 367.361 510.396 367.571 511.306 369.321C512.273 371.182 510.833 373.426 509.143 374.669C507.452 375.912 505.373 376.787 504.274 378.575C510.212 382.487 516.149 386.4 522.086 390.312C526.736 393.376 531.997 397.752 531.045 403.239C530.487 406.456 527.761 408.957 524.724 410.157C521.687 411.358 518.349 411.483 515.085 411.577C493.15 412.209 471.193 412.097 449.265 411.243C447.744 411.184 446.047 411.042 445.033 409.906C444.248 409.026 444.086 407.77 443.959 406.598C442.697 394.927 441.435 383.255 440.173 371.584C440.126 371.153 440.082 370.703 440.236 370.297C440.885 368.593 443.435 369.643 444.86 370.781C454.954 378.838 471.092 377.891 480.175 368.709C482.369 366.491 486.106 366.778 488.925 368.115C491.745 369.453 494.104 371.629 496.932 372.947C496.63 371.312 498.072 369.586 499.735 369.593C501.398 369.6 502.827 371.337 502.512 372.97ZM503.754 380.489C503.033 377.84 499.118 377.285 496.959 378.98C494.8 380.675 494.1 383.628 493.913 386.366C493.843 387.388 492.163 387.49 491.587 386.643C491.012 385.796 491.245 384.655 491.565 383.682C492.408 381.115 493.706 378.698 495.381 376.577C496.211 375.528 494.995 374.108 493.9 373.338C490.038 370.623 484.569 367.944 481.026 371.064C471.318 379.615 455.833 380.754 444.979 373.716C445.108 382.477 445.754 391.23 446.911 399.916C447.027 400.791 447.177 401.725 447.781 402.369C448.581 403.22 449.891 403.279 451.059 403.281C469.916 403.305 488.773 403.329 507.63 403.353C509.465 403.355 511.959 402.7 511.816 400.871C511.483 396.613 513.368 392.243 516.693 389.563C514.078 387.664 511.462 385.764 508.847 383.864C508.049 383.284 507.214 382.689 506.242 382.522C503.308 382.019 501.348 385.383 500.31 388.173C498.72 385.33 500.573 381.194 503.754 380.489ZM454.47 409.559C474.106 409.713 493.744 409.68 513.38 409.461C518.955 409.398 525.464 408.832 528.487 404.148C501.371 405.339 474.217 405.634 447.082 405.032C446.745 408.289 451.195 409.534 454.47 409.559ZM521.672 392.056C521.088 391.685 520.484 391.307 519.802 391.19C517.746 390.837 516.124 392.891 515.231 394.776C514.714 395.866 514.265 396.989 513.888 398.134C513.6 399.007 513.351 399.935 513.532 400.836C513.713 401.737 514.452 402.59 515.371 402.6C518.71 402.638 522.049 402.603 525.387 402.494C526.174 402.468 527.03 402.412 527.62 401.89C528.314 401.275 528.398 400.214 528.224 399.304C527.596 396.008 524.506 393.852 521.672 392.056ZM509.877 370.739C509.84 369.722 508.482 369.205 507.544 369.598C506.605 369.99 506.028 370.923 505.512 371.801C504.889 372.861 504.266 373.922 503.643 374.982C503.317 375.538 503.139 376.484 503.769 376.624C505.427 375.245 507.084 373.867 508.742 372.489C509.297 372.028 509.903 371.46 509.877 370.739ZM499.133 372.396C498.852 373.767 499.555 375.283 500.784 375.952C501.21 374.54 500.96 372.94 500.124 371.725C500.073 371.381 499.606 371.182 499.322 371.383C499.104 371.66 499.026 372.042 499.118 372.382L499.133 372.396Z" fill="#00160A"/>
<path fill-rule="evenodd" clip-rule="evenodd" d="M431.618 331.96C431.12 329.548 430.622 327.135 430.123 324.722C429.93 323.785 429.752 322.744 430.243 321.922C430.914 320.802 432.448 320.653 433.753 320.63C465.805 320.073 497.869 320.195 529.916 320.996C532.103 321.051 533.898 322.939 534.563 325.022C535.228 327.106 535.009 329.355 534.784 331.53C534.662 332.706 534.468 334.017 533.53 334.736C532.763 335.325 531.714 335.34 530.746 335.33C498.558 334.978 466.37 334.627 434.181 334.276C433.651 334.27 433.091 334.255 432.642 333.973C431.986 333.56 431.775 332.719 431.618 331.96ZM436.045 322.747C433.676 322.729 431.996 325.544 432.588 327.838C433.18 330.132 435.397 331.711 437.699 332.269C440.002 332.827 442.413 332.558 444.772 332.337C473.84 329.62 503.235 334.813 532.282 331.882C532.434 330.115 532.579 328.288 532.01 326.608C531.441 324.928 529.958 323.423 528.184 323.41C497.471 323.189 466.758 322.968 436.045 322.747Z" fill="#00160A"/>
<path fill-rule="evenodd" clip-rule="evenodd" d="M238.349 401.842C237.276 403.876 235.797 405.941 233.579 406.546C229.354 407.698 225.861 403.008 224.708 398.784C222.908 392.189 223.363 385 225.981 378.685C227.381 375.307 226.214 371.313 224.018 368.388C219.878 362.871 212.153 360.456 205.516 362.333C198.879 364.209 193.641 370.113 192.253 376.87C192.035 377.927 192.189 379.413 193.258 379.563C198.593 380.31 201.042 386.57 201.854 391.895C202.474 395.961 202.743 400.221 201.364 404.095C199.985 407.97 196.61 411.373 192.509 411.685C188.829 409.207 186.058 405.408 184.822 401.147C182.523 393.222 185.509 384.821 188.592 377.167C190.474 372.496 192.493 367.712 196.067 364.165C203.707 356.581 217.973 357.481 224.598 365.965C227.147 369.229 228.61 373.283 231.434 376.311C233.563 378.594 236.378 380.191 238.32 382.635C242.539 387.942 241.513 395.846 238.349 401.842ZM187.159 387.191C185.225 392.522 185.764 398.695 188.593 403.61C189.057 404.418 189.61 405.221 190.422 405.678C191.234 406.134 192.366 406.142 193.008 405.466C194.932 403.444 195.172 400.385 195.166 397.594C195.158 394.293 194.955 390.992 194.557 387.715C194.394 386.374 194.116 384.891 193.031 384.085C191.946 383.28 189.91 383.954 190.08 385.294C190.576 389.195 191.072 393.095 191.567 396.996C191.68 397.883 191.779 398.843 191.335 399.619C190.89 400.394 189.662 400.756 189.099 400.061C187.64 397.085 187.2 393.62 187.869 390.373C188.11 389.206 188.275 387.608 187.159 387.191ZM231.813 402.659C232.306 402.274 232.536 401.649 232.72 401.052C234.166 396.356 234.182 391.23 232.764 386.525C232.225 384.736 230.764 382.644 228.995 383.243C227.972 383.589 227.454 384.709 227.129 385.738C225.649 390.415 225.846 395.603 227.675 400.154C228.026 401.026 228.459 401.908 229.202 402.484C229.944 403.06 231.072 403.237 231.813 402.659ZM197.094 385.781C198.383 392.313 198.109 399.148 196.301 405.556C196.135 406.146 196.804 406.606 197.364 406.854C200.076 400.277 200.419 392.751 198.318 385.954C197.969 385.706 197.498 385.639 197.094 385.781ZM234.718 384.017C234.317 384.656 233.917 385.296 233.516 385.935C234.836 385.712 235.441 387.514 235.511 388.851C235.675 391.943 235.838 395.034 236.002 398.126C237.232 397.664 237.454 396.05 237.477 394.736C237.529 391.778 237.58 388.821 237.632 385.863C237.189 385.811 236.746 385.759 236.303 385.707C236.257 384.869 235.551 384.116 234.718 384.017Z" fill="#00160A"/>
<path fill-rule="evenodd" clip-rule="evenodd" d="M379.719 389.627C370.907 389.207 362.056 389.589 353.313 390.768C352.539 390.872 351.673 390.96 351.052 390.488C350.43 390.016 350.498 388.763 351.274 388.678C360.017 387.717 368.799 387.099 377.591 386.826C378.547 386.796 379.618 386.813 380.299 387.484C380.98 388.156 380.674 389.673 379.719 389.627Z" fill="#00160A"/>
<path fill-rule="evenodd" clip-rule="evenodd" d="M175.021 354.441C177.523 354.206 180.025 353.971 182.526 353.736C183.786 353.618 185.047 353.499 186.307 353.381C194.323 352.628 202.339 351.875 210.362 351.205C210.677 351.179 211.006 351.155 211.298 351.276C212.167 351.636 212.033 353.039 211.276 353.597C210.52 354.155 209.496 354.123 208.557 354.092C196.741 353.699 184.965 357.25 173.204 356.049C172.44 355.971 171.44 355.577 171.575 354.821C172.719 354.657 173.871 354.549 175.021 354.441Z" fill="#00160A"/>
<path fill-rule="evenodd" clip-rule="evenodd" d="M444.466 614.1C444.073 610.659 443.791 606.914 441.477 604.337C439.701 602.359 440.62 598.683 443.117 597.773C445.614 596.863 448.682 599.086 448.596 601.742C448.566 602.654 448.234 603.525 447.976 604.4C446.211 610.376 447.85 616.807 450.007 622.653C452.192 628.573 455.537 634.874 461.54 636.82C468.484 639.072 476.169 634.089 479.247 627.47C482.326 620.85 481.857 613.164 480.782 605.944C480.674 605.219 480.48 604.383 479.815 604.076C477.114 602.829 476.704 598.447 479.127 596.72C481.55 594.994 485.558 596.812 485.855 599.773C485.956 600.777 485.699 601.777 485.508 602.768C484.181 609.644 485.936 616.854 484.482 623.704C483.571 627.994 481.388 632.005 478.28 635.099C474.985 638.379 470.535 640.641 465.886 640.72C459.626 640.826 453.771 636.943 450.233 631.778C446.695 626.613 445.177 620.321 444.466 614.1Z" fill="#00160A"/>
<path fill-rule="evenodd" clip-rule="evenodd" d="M261.914 331.585C262.088 333.942 262.254 336.37 261.52 338.617C260.785 340.863 258.919 342.91 256.564 343.112C244.425 344.156 232.284 345.2 220.122 345.919C203.538 346.901 186.924 347.279 170.315 347.657C169.722 347.67 169.088 347.673 168.594 347.346C167.852 346.856 167.713 345.843 167.644 344.957C167.465 342.635 167.285 340.313 167.105 337.992C167.051 337.285 167.009 336.523 167.39 335.925C167.947 335.05 169.14 334.9 170.176 334.838C200.724 333.028 231.315 331.943 261.914 331.585ZM256.804 339.729C258.755 339.599 259.15 336.528 257.719 335.194C256.288 333.861 254.115 333.831 252.16 333.88C227.019 334.505 201.869 335.13 176.779 336.836C174.972 336.959 173.092 337.109 171.53 338.026C169.968 338.943 168.841 340.87 169.437 342.58C170.285 345.009 173.562 345.276 176.13 345.105C203.021 343.313 229.912 341.521 256.804 339.729Z" fill="#00160A"/>
<path fill-rule="evenodd" clip-rule="evenodd" d="M230.701 390.255C230.725 390.894 230.749 391.532 230.773 392.171C230.823 393.5 230.873 394.838 230.681 396.154C229.014 395.977 228.497 393.833 228.4 392.16C228.354 391.364 228.338 390.474 228.871 389.882C229.404 389.289 230.671 389.458 230.701 390.255Z" fill="#00160A"/>
<path fill-rule="evenodd" clip-rule="evenodd" d="M350.734 395.698C352.37 394.188 354.856 394.235 357.081 394.298C364.12 394.498 371.18 393.954 378.105 392.678C378.922 392.528 379.361 393.798 378.852 394.454C378.344 395.11 377.424 395.247 376.599 395.331C368.794 396.125 360.956 396.595 353.112 396.741C352.177 396.758 350.992 396.597 350.734 395.698Z" fill="#00160A"/>
<path fill-rule="evenodd" clip-rule="evenodd" d="M613.509 422.087C612.737 424.698 610.173 426.312 607.727 427.508C595.487 433.495 581.098 434.96 567.903 431.565C563.471 430.424 558.421 427.786 558.232 423.213C558.092 419.852 560.775 417.035 563.617 415.233C567.975 412.47 573.057 411.074 578.123 410.09C587.897 408.191 598.492 407.799 607.339 412.366C611.045 414.279 614.691 418.087 613.509 422.087ZM561.253 422.705C561.261 426.398 565.381 428.56 568.953 429.497C581.358 432.751 594.927 431.347 606.403 425.622C608.245 424.703 610.188 423.492 610.773 421.519C611.559 418.869 609.506 416.199 607.227 414.634C600.37 409.922 591.3 410.566 583.027 411.452C576.369 412.165 569.275 413.096 564.2 417.463C562.632 418.813 561.249 420.636 561.253 422.705Z" fill="#00160A"/>
<path fill-rule="evenodd" clip-rule="evenodd" d="M253.374 205.774C252.957 203.4 254.594 201.041 256.704 199.875C258.813 198.709 261.3 198.484 263.706 198.342C285.16 197.08 306.581 200.526 328.042 201.658C330.804 201.804 333.717 201.957 336.04 203.457C338.364 204.958 339.728 208.326 338.121 210.577C337.343 211.665 336.058 212.27 334.782 212.673C331.103 213.835 327.155 213.681 323.3 213.516C303.236 212.653 283.173 211.79 263.109 210.928C259.126 210.757 254.064 209.701 253.374 205.774ZM256.128 202.334C254.994 203.931 255.943 206.315 257.581 207.39C259.219 208.465 261.282 208.586 263.239 208.674C284.503 209.631 305.767 210.588 327.03 211.545C329.102 211.638 331.397 211.658 332.967 210.303C334.536 208.947 334.329 205.715 332.281 205.389C308.636 201.63 284.642 200.069 260.709 200.732C259.029 200.779 257.101 200.963 256.128 202.334Z" fill="#00160A"/>
<path fill-rule="evenodd" clip-rule="evenodd" d="M488.634 185.171C491.898 178.371 497.19 171.361 504.711 170.781C509.721 170.395 515.036 171.271 519.001 174.357C526.192 179.956 526.693 190.811 524.123 199.555C521.094 209.861 514.335 219.406 504.638 224.028C502.325 225.131 499.81 225.955 497.25 225.854C490.447 225.587 485.493 218.904 484.028 212.255C482.021 203.143 484.597 193.583 488.634 185.171ZM497.094 223.365C502.123 224.05 506.861 220.847 510.409 217.218C517.058 210.416 521.521 201.509 522.992 192.112C523.416 189.404 523.592 186.594 522.855 183.953C521.406 178.76 516.483 175.007 511.201 173.927C506.121 172.889 500.538 174.128 496.622 177.526C494.74 179.16 493.279 181.223 492.002 183.363C487.84 190.345 485.474 198.469 485.763 206.592C485.894 210.262 486.59 213.992 488.448 217.16C490.305 220.327 493.456 222.87 497.094 223.365Z" fill="#FFB61D"/>
<path fill-rule="evenodd" clip-rule="evenodd" d="M323.727 473.788C324.396 473.753 325.113 473.729 325.679 474.087C326.379 474.529 326.635 475.409 326.836 476.211C327.277 477.969 327.721 479.797 327.366 481.574C327.01 483.35 325.609 485.057 323.799 485.136C319.181 485.338 314.564 485.539 309.947 485.741C308.136 485.82 306.015 486.079 305.115 487.652C304.505 488.718 304.687 490.042 304.887 491.254C305.453 494.689 307.053 499.031 310.532 498.905C312.846 498.821 314.909 500.578 315.905 502.668C316.901 504.759 317.05 507.138 317.182 509.45C317.307 511.626 316.751 514.6 314.572 514.654C312.815 514.698 312.33 517.073 312.386 518.83C312.774 531.051 313.162 543.271 313.55 555.491C313.613 557.46 311.09 558.288 309.13 558.486C292.704 560.144 276.108 560.1 259.691 558.356C259.103 558.293 258.351 558.063 258.338 557.471C258.034 543.663 257.73 529.855 257.426 516.047C257.409 515.242 257.014 514.129 256.237 514.341C253.791 515.01 251.331 512.74 250.824 510.255C250.318 507.769 251.187 505.233 252.043 502.845C252.439 501.742 252.883 500.572 253.83 499.88C255.852 498.404 259.589 499.455 260.495 497.121C260.645 496.735 260.674 496.312 260.659 495.898C260.533 492.292 257.175 489.447 253.638 488.734C250.101 488.021 246.455 488.959 243.01 490.033C242.221 487.054 242.019 483.921 242.418 480.866C242.513 480.145 242.659 479.387 243.144 478.845C243.835 478.071 244.986 477.964 246.021 477.909C271.923 476.535 297.825 475.162 323.727 473.788ZM254.667 501.764C254.169 502.342 254.059 503.149 253.969 503.907C253.735 505.882 253.501 507.858 253.268 509.833C253.218 510.249 253.172 510.688 253.34 511.071C253.698 511.892 254.783 512.034 255.679 512.056C260.434 512.174 265.189 512.292 269.944 512.411C270.746 512.43 271.587 512.442 272.299 512.073C273.444 511.479 273.915 509.866 273.269 508.75C273.85 508.69 274.432 508.631 275.014 508.571C274.758 510.294 276.513 511.736 278.237 511.99C279.96 512.243 281.692 511.717 283.428 511.579C287.069 511.292 290.704 512.72 294.331 512.291C294.713 512.246 295.12 512.167 295.387 511.89C295.737 511.529 295.73 510.964 295.701 510.462C295.564 508.054 295.426 505.647 295.289 503.239C295.246 502.481 295.181 501.665 294.694 501.083C293.998 500.251 292.751 500.225 291.668 500.267C286.433 500.47 281.198 500.672 275.963 500.875C275.598 500.889 275.193 500.92 274.94 501.184C274.656 501.479 274.676 501.944 274.714 502.352C274.89 504.225 275.066 506.099 275.242 507.972C274.547 508.04 273.866 508.243 273.248 508.567C273.093 507.091 272.939 505.615 272.784 504.138C272.643 502.792 272.116 501.068 270.763 501.05C266.442 500.992 262.122 500.935 257.801 500.877C256.678 500.862 255.4 500.913 254.667 501.764ZM279.56 516.288C279.488 515.294 279.057 513.978 278.066 514.085C271.905 514.747 265.669 514.709 259.517 513.972C259.669 527.378 259.919 540.783 260.266 554.186C260.311 555.911 262.488 556.601 264.205 556.777C269.304 557.3 274.438 557.478 279.561 557.311C279.981 557.297 280.436 557.268 280.756 556.996C281.177 556.638 281.204 556.01 281.198 555.457C281.051 542.388 280.505 529.324 279.56 516.288ZM310.37 515.549C310.202 515.26 309.818 515.2 309.484 515.172C304.185 514.723 298.857 514.597 293.542 514.795C293.06 514.813 292.545 514.845 292.163 515.14C291.584 515.588 291.548 516.434 291.564 517.167C291.857 530.547 292.15 543.927 292.443 557.308C298.295 557.873 304.253 557.32 309.901 555.688C310.252 555.587 310.625 555.466 310.852 555.18C311.097 554.87 311.113 554.444 311.118 554.05C311.229 545.441 311.007 536.832 310.784 528.226C310.68 524.171 310.575 520.116 310.47 516.062C310.466 515.886 310.459 515.701 310.37 515.549ZM244.653 481.63C243.637 483.227 244.729 485.483 246.399 486.375C248.069 487.268 250.07 487.181 251.961 487.072C263.398 486.409 274.835 485.746 286.272 485.084C297.18 484.452 308.088 483.819 318.977 482.933C320.572 482.803 322.248 482.64 323.566 481.732C324.884 480.824 325.649 478.906 324.765 477.572C323.879 476.234 321.972 476.172 320.369 476.255C296.604 477.481 272.839 478.707 249.073 479.932C247.432 480.017 245.535 480.243 244.653 481.63ZM290.367 556.996C289.563 543.934 289.404 530.833 289.89 517.756C289.918 517.005 289.943 516.223 289.643 515.534C288.768 513.521 285.952 513.527 283.783 513.862C282.791 514.016 281.524 514.49 281.599 515.491C282.529 528 283.459 540.529 283.251 553.071C283.223 554.731 284.174 556.372 285.628 557.174C287.082 557.976 288.977 557.905 290.367 556.996ZM314.912 508.776C314.629 507.05 314.334 505.286 313.492 503.753C312.651 502.22 311.143 500.936 309.397 500.849C306.078 500.683 302.759 500.518 299.441 500.353C298.577 500.31 297.383 500.57 297.425 501.434C297.551 504.06 297.678 506.687 297.804 509.313C297.859 510.459 298.073 511.843 299.135 512.278C299.478 512.418 299.857 512.429 300.227 512.437C304.554 512.536 308.881 512.635 313.208 512.734C314.034 512.753 314.726 512.027 314.951 511.232C315.177 510.438 315.045 509.591 314.912 508.776ZM293.962 495.834C293.529 494.011 293.077 492.144 292.041 490.583C291.004 489.021 289.245 487.801 287.376 487.939C284.495 488.15 281.614 488.362 278.733 488.574C276.938 488.706 274.905 488.964 273.853 490.424C272.581 492.19 273.453 494.654 273.11 496.804C272.989 497.559 273.579 498.282 274.285 498.575C274.991 498.869 275.785 498.834 276.548 498.795C281.706 498.53 286.863 498.264 292.02 497.999C292.777 497.96 293.686 497.822 293.988 497.126C294.162 496.724 294.064 496.261 293.962 495.834ZM303 492.531C302.019 491.187 302.043 489.196 303.057 487.876C301.249 486.753 298.717 486.961 297.117 488.363C295.516 489.765 294.977 492.248 295.852 494.187C296.16 494.871 295.983 495.681 296.201 496.399C296.509 497.419 297.576 498.06 298.634 498.191C299.691 498.322 300.752 498.044 301.782 497.769C303.132 497.408 304.776 496.686 304.763 495.288C304.752 494.173 303.657 493.432 303 492.531ZM270.771 497.317C271.37 495.358 270.564 493.124 269.026 491.77C267.489 490.417 265.335 489.889 263.294 490.073C262.475 490.146 261.619 490.349 261.026 490.92C260.433 491.491 260.221 492.518 260.755 493.143C261.15 493.606 261.826 493.741 262.24 494.187C262.871 494.867 262.658 495.955 262.947 496.837C263.6 498.829 266.305 499.017 268.392 498.826C269.107 498.761 269.895 498.66 270.366 498.118C270.563 497.89 270.683 497.605 270.771 497.317ZM271.109 490.726C271.593 490.258 271.681 489.435 271.306 488.875C270.473 488.627 269.541 489.123 269.102 489.874C269.428 490.62 270.344 491.051 271.127 490.827M294.893 488.646C295.015 488.319 294.943 487.928 294.714 487.665C293.923 487.415 293.001 487.639 292.414 488.224C293.019 488.91 294.118 489.095 294.914 488.645L294.893 488.646Z" fill="#00160A"/>
<path fill-rule="evenodd" clip-rule="evenodd" d="M613.736 433.121C588.381 443.036 563.025 452.951 537.67 462.866C526.763 467.131 514.145 473.532 512.975 485.185C527.792 473.786 546.094 466.983 564.759 465.938C551.864 482.184 535.583 495.729 517.261 505.451C500.807 514.182 479.976 523.494 478.565 542.067C496.236 521.025 523.404 508.286 550.881 508.159C533.302 533.906 505.114 552.169 474.431 557.69C475.484 565.602 476.537 573.514 477.59 581.426C488.015 581.056 498.504 582.548 508.413 585.809C515.47 616.126 522.527 646.442 529.584 676.759C531.32 684.22 532.849 692.792 528.281 698.941C523.749 705.04 515.19 706.09 507.61 706.628C477.737 708.752 447.863 710.876 417.989 712.999C414.413 696.795 410.836 680.591 407.259 664.386C356.869 669.065 306.478 673.744 256.088 678.423C245.476 679.409 234.253 680.292 224.651 675.669C189.822 658.901 147.59 691.357 110.803 679.483C143.124 678.874 175.345 673.236 205.953 662.835C217.053 659.063 230.344 648.73 224.544 638.542C196.16 658.347 159.74 666.254 125.698 660.001C127.696 626.942 126.411 593.685 121.866 560.878C146.088 557.413 169.96 551.499 192.998 543.256C199.406 540.963 205.999 538.324 210.562 533.274C215.126 528.224 216.971 520.066 212.961 514.566C177.92 533.238 137.462 541.595 97.8913 538.334C99.9561 583.108 102.021 627.883 104.086 672.657C98.2367 627.915 95.1348 582.814 94.8033 537.692C115.173 535.886 135.542 534.08 155.911 532.273C152.636 517.734 149.34 502.862 151.023 488.053C152.705 473.244 160.327 458.248 173.724 451.717C163.589 430.1 148.271 410.934 129.42 396.283C107.321 379.107 78.9094 366.157 68.8178 340.051C62.1453 322.79 65.4182 302.713 74.6573 286.678C83.8965 270.644 98.5367 258.292 114.449 248.844C92.5416 243.213 75.9479 221.375 76.3919 198.76C76.8358 176.145 94.2738 154.975 116.385 150.209C105.96 137.785 89.5446 132.091 77.5542 121.171C63.5861 108.45 56.5671 87.93 61.6551 69.7355C66.7431 51.541 84.6573 37.2259 103.533 38.0325C119.037 38.6951 132.681 48.5013 143.504 59.6233C160.288 76.8722 172.771 98.2757 179.52 121.378C184.018 136.776 200.504 144.609 214.427 152.578C228.35 160.547 242.808 174.428 238.885 189.982C233.699 168.697 216.285 150.856 195.132 145.155C184.11 142.185 180.093 129.069 176.547 118.218C169.648 97.1024 157.87 77.5976 142.396 61.6603C130.766 49.6831 115.562 39.2317 98.8919 40.1315C81.7313 41.0578 66.6037 55.017 62.6804 71.7488C58.7571 88.4805 65.3351 106.814 77.8566 118.585C90.6105 130.575 108.856 136.448 119.139 150.614C96.8378 155.146 79.2068 176.608 79.0897 199.364C78.9725 222.121 96.3817 243.763 118.635 248.524C102.953 257.704 88.2784 269.365 78.603 284.746C68.9276 300.128 64.7801 319.65 70.5693 336.874C83.9595 376.714 139.771 386.223 159.467 423.352C164.801 405.832 156.982 387.41 152.963 369.541C148.944 351.673 151.215 328.727 167.875 321.118C163.006 297.651 158.137 274.185 153.268 250.718C149.64 233.232 147.82 211.078 162.863 201.452C152.264 198.165 142.857 191.163 136.666 181.954C143.352 192.187 156.228 197.993 168.324 196.229C153.039 163.095 136.091 130.727 117.565 99.2901C137.527 129.389 155.193 161.01 170.361 193.787C240.515 191.889 310.777 194.05 380.682 200.257C389.963 201.081 399.952 202.28 406.812 208.585C416.672 217.645 431.475 220.95 444.251 216.943C448.316 227.02 451.307 238.339 447.851 248.641C444.396 258.943 432.156 266.806 422.372 262.08C424.926 275.219 427.48 288.359 430.034 301.498C455.05 301.799 480.063 302.31 505.071 303.031C518.325 303.413 532.178 304.016 543.698 310.582C555.217 317.149 563.346 331.694 558.215 343.921C561.488 333.817 564.76 323.712 568.033 313.608C579.568 331.918 585.234 353.865 584.002 375.47C587.998 369.39 591.994 363.31 595.99 357.23C581.793 334.886 579.986 305.188 591.368 281.287C602.532 299.775 608.82 321.177 609.431 342.765C613.594 303.858 641.16 268.389 677.834 254.748C671.471 269.409 665.109 284.071 658.746 298.732C653.298 311.285 646.378 325.208 633.288 329.196C624.653 331.826 612.15 331.667 610.584 340.557C635.385 334.053 661.783 333.731 686.735 339.628C667.508 362.745 630.455 368.437 605.175 352.157C593.249 365.458 582.916 380.186 574.467 395.927C588.819 378.09 611.154 366.936 634.035 366.178C621.742 380.707 607.876 393.904 592.758 405.465C600.782 406.236 609.458 407.293 615.278 412.87C621.099 418.447 621.244 430.185 613.736 433.121ZM279.045 286.702C285.695 286.625 293.143 286.862 297.786 291.624C301.327 295.257 302.276 300.616 303.048 305.63C306.579 328.562 309.884 351.528 312.964 374.524C313.737 380.292 308.901 385.615 303.376 387.444C297.851 389.273 291.845 388.47 286.083 387.649C290.887 383.502 298.997 386.474 304.167 382.795C308.804 379.496 308.777 372.721 308.222 367.057C306.14 345.822 303.306 324.66 299.725 303.626C299.092 299.908 298.317 295.952 295.683 293.253C292.176 289.658 286.571 289.418 281.549 289.412C260.932 289.386 240.315 289.361 219.698 289.335C216.145 289.331 212.406 289.373 209.321 291.136C200.444 296.21 203.717 309.611 208.129 318.835C220.631 316.301 233.405 315.112 246.159 315.298C257.458 315.462 271.548 319.131 273.454 330.27C277.64 354.74 281.825 379.21 286.011 403.68C288.206 416.511 289.416 432.099 279.162 440.118C274.039 444.125 267.239 445.08 260.786 445.896C244.92 447.902 229.053 449.908 213.187 451.914C219.795 509.775 226.403 567.637 233.012 625.498C233.749 631.952 235.098 639.371 240.773 642.532C244.13 644.402 248.202 644.249 252.039 644.04C302.594 641.283 353.1 637.632 403.526 633.089C401.509 628.493 401.469 623.069 403.418 618.443C408.526 648.344 413.633 678.245 418.741 708.146C427.683 701.982 426.308 688.602 423.934 678.004C417.923 651.171 411.913 624.338 405.902 597.505C403.469 601.969 401.035 606.433 398.602 610.897C397.407 605.324 400.751 599.557 405.39 596.244C410.028 592.93 415.745 591.571 421.319 590.376C438.455 586.702 455.776 583.896 473.196 581.972C468.134 546.262 463.072 510.553 458.009 474.843C426.887 483.391 393.929 480.701 361.772 477.944C352.248 477.128 340.144 473.922 339.235 464.406C336.952 440.484 334.669 416.562 332.386 392.64C332.088 389.521 330.281 385.321 327.306 386.303C319.996 388.717 315.648 378.302 315.05 370.626C313.173 346.553 311.296 322.479 309.419 298.405C309.173 295.248 309.109 291.604 311.463 289.486C313.112 288.003 315.486 287.731 317.694 287.53C333.446 286.089 349.198 284.649 364.951 283.209C373.946 282.386 384.163 281.961 390.709 288.186C395.329 292.579 396.879 299.241 397.854 305.541C399.651 317.153 400.246 328.95 399.627 340.683C398.378 329.214 397.13 317.745 395.882 306.276C395.32 301.115 394.634 295.643 391.374 291.604C385.81 284.709 375.458 284.825 366.628 285.551C350.854 286.849 335.081 288.147 319.307 289.445C317.183 289.62 314.881 289.871 313.337 291.34C311.328 293.252 311.385 296.416 311.586 299.181C313.276 322.447 314.966 345.712 316.656 368.978C316.975 373.369 317.409 378.063 320.185 381.48C322.961 384.898 328.984 385.971 331.578 382.413C328.025 374.601 332.94 365.035 340.216 360.482C347.492 355.929 356.421 355.128 364.977 354.445C379.732 353.268 394.487 352.091 409.243 350.914C408.232 320.373 404.938 289.909 399.399 259.858C394.295 258.431 389.648 255.414 386.267 251.334C383.736 257.852 376.199 261.995 369.34 260.637C362.481 259.279 357.091 252.577 357.235 245.586C356.421 253.631 349.413 260.609 341.364 261.387C333.316 262.166 325.1 256.66 322.76 248.92C318.906 253.218 313.905 256.922 308.155 257.446C302.406 257.969 296.046 254.338 295.111 248.641C287.56 258.437 270.011 257.443 263.614 246.857C257.035 257.715 238.304 257.448 232.037 246.407C229.223 256.615 213.513 257.431 205.973 249.998C198.432 242.565 196.964 231.115 195.915 220.579C183.468 232.572 181.222 251.838 183.585 268.96C185.947 286.083 192.103 302.577 193.597 319.797C197.007 320.654 200.747 320.113 203.774 318.324C200.504 308.443 198.354 295.168 207.23 289.733C210.79 287.553 215.196 287.442 219.37 287.393C239.262 287.163 259.153 286.933 279.045 286.702ZM476.097 452.988C502.19 451.692 529.107 455.093 553.904 446.87C557.741 445.597 561.672 443.92 564.144 440.721C557.81 437.81 551.083 432.791 551.238 425.821C551.34 421.244 554.512 417.288 558.085 414.426C561.836 411.421 566.203 409.19 570.836 407.911C571.211 406.764 569.195 406.516 568.196 407.193C567.198 407.871 565.682 408.709 565.018 407.702C564.839 407.431 564.803 407.094 564.771 406.772C562.282 381.444 558.594 356.235 553.723 331.255C552.259 323.745 550.083 315.379 543.463 311.541C539.889 309.468 535.605 309.12 531.483 308.835C500.455 306.688 469.369 305.374 438.27 304.892C430.921 304.779 422.699 305.052 417.546 310.294C413.638 314.271 412.518 320.177 412.104 325.738C410.823 342.956 414.51 360.096 416.909 377.194C419.782 397.677 420.816 418.366 422.712 438.962C422.964 441.703 423.27 444.559 424.752 446.878C427.294 450.853 432.454 452.1 437.127 452.755C444.03 453.723 451.011 454.132 457.98 453.978C464.027 453.844 470.056 453.288 476.097 452.988ZM261.954 320.128C253.121 316.245 243.004 317.285 233.419 318.398C218.921 320.081 204.423 321.764 189.925 323.447C182.957 324.256 175.982 325.066 169.088 326.366C167.426 326.68 165.759 327.025 164.191 327.658C158.046 330.142 154.383 336.767 153.531 343.34C152.678 349.912 154.139 356.538 155.54 363.016C159.892 383.148 163.752 403.468 164.799 424.039C165.006 428.111 165.11 432.237 166.23 436.158C167.349 440.079 169.634 443.851 173.208 445.815C175.956 447.326 179.186 447.639 182.316 447.845C211.004 449.73 239.677 445.104 268.055 440.493C272.093 439.837 276.341 439.088 279.488 436.476C284.349 432.441 285.076 425.342 285.041 419.024C284.976 407.357 283.564 395.698 280.84 384.352C277.655 371.083 272.653 358.03 272.521 344.385C272.462 338.366 273.252 331.881 270.112 326.746C268.257 323.712 265.21 321.559 261.954 320.128ZM125.44 572.802C129.296 600.512 130.592 628.577 129.305 656.524C129.237 657.998 131.027 658.748 132.476 659.025C151.027 662.571 170.133 658.027 188.135 652.311C198.368 649.062 208.609 645.359 217.46 639.28C221.508 636.499 225.605 632.309 224.848 627.456C219.984 596.278 217.309 564.76 216.849 533.208C200.469 546.007 179.683 551.438 159.538 556.563C149.989 558.992 140.312 561.437 130.46 561.355C128.078 561.335 126.101 563.427 125.435 565.714C124.77 568.001 125.112 570.443 125.44 572.802ZM501.946 586.809C471.263 583.821 439.964 587.33 410.705 597.037C412.461 610.402 414.862 623.681 417.895 636.815C419.109 642.074 420.425 647.309 421.741 652.544C424.303 662.739 426.865 672.933 429.427 683.128C429.784 684.547 430.231 686.098 431.454 686.901C432.545 687.617 433.958 687.535 435.26 687.427C465.556 684.9 495.836 682.163 526.095 679.215C519.48 649.728 512.865 620.242 506.25 590.755C505.996 589.622 505.69 588.401 504.789 587.669C504.008 587.036 502.946 586.906 501.946 586.809ZM456.717 457.369C450.04 457.709 443.264 458.041 436.745 456.56C430.226 455.079 423.882 451.526 420.534 445.739C418.613 447.951 414.793 448.117 412.687 446.08C410.581 444.043 410.619 440.22 412.765 438.225C404.284 438.302 395.803 438.378 387.321 438.455C391.197 440.738 390.879 447.47 386.872 449.515C382.865 451.56 377.319 448.106 377.226 443.608C377.185 441.59 378.423 439.323 380.434 439.142C379.6 437.713 377.435 438.559 375.788 438.403C373.306 438.168 371.95 435.464 371.079 433.128C367.548 423.654 364.335 414.065 361.123 404.479C363.373 408.16 368.438 409.816 372.428 408.175C373.837 407.595 373.88 405.568 373.28 404.167C372.232 401.721 369.844 399.835 367.191 399.627C364.538 399.419 361.777 401.04 360.88 403.545C359.55 402.551 360.117 400.252 361.512 399.351C362.907 398.451 364.694 398.53 366.351 398.63C381.994 399.575 397.695 399.56 413.336 398.585C414.048 398.541 414.833 398.461 415.318 397.939C415.867 397.348 415.814 396.436 415.727 395.634C415.129 390.132 414.531 384.63 413.933 379.128C413.867 378.518 413.773 377.851 413.317 377.44C412.815 376.987 412.058 377.008 411.384 377.056C391.777 378.453 372.221 380.564 352.768 383.382C350.697 383.682 348.771 381.944 348.117 379.956C347.464 377.969 347.766 375.809 348.075 373.739C348.183 373.013 348.321 372.227 348.859 371.727C349.354 371.267 350.072 371.159 350.743 371.073C370.982 368.49 391.353 366.94 411.75 366.431C411.255 368.446 408.627 368.88 406.552 368.917C387.622 369.253 368.713 370.771 349.971 373.458C348.475 376.017 350.526 379.464 353.288 380.54C356.051 381.616 359.145 381.041 362.059 380.493C378.116 377.471 394.407 375.69 410.739 375.171C413.07 375.097 413.349 371.742 412.859 369.461C411.721 364.164 410.583 358.867 409.445 353.571C398.135 355.712 386.582 356.567 375.081 356.113C368.275 355.844 361.506 357.033 354.798 358.218C349.098 359.225 343.023 360.418 338.904 364.485C334.089 369.238 333.226 376.671 333.518 383.431C333.998 394.521 336.812 405.369 338.201 416.382C339.899 429.839 339.462 443.479 340.765 456.979C341.116 460.616 341.617 464.321 343.248 467.591C344.878 470.861 347.843 473.668 351.457 474.207C381.154 478.635 411.435 479.138 441.263 475.699C444.018 475.381 446.798 475.023 449.399 474.061C453.504 472.542 457.024 469.497 459.119 465.654C459.959 464.111 460.587 462.347 460.28 460.617C459.974 458.887 458.471 457.28 456.717 457.369ZM219.297 533.235C222.404 567.428 225.512 601.621 228.62 635.815C229.179 641.96 229.717 648.309 227.796 654.173C225.875 660.038 220.822 665.339 214.654 665.541C218.275 670.837 224.524 673.866 230.844 674.975C237.163 676.084 243.643 675.497 250.031 674.907C302.673 670.043 355.314 665.179 407.955 660.316C406.825 653.737 405.695 647.159 404.565 640.581C404.312 639.105 403.587 637.232 402.093 637.344C365.899 640.041 329.705 642.738 293.511 645.435C278.649 646.543 263.713 647.651 248.859 646.435C241.342 645.821 232.059 642.834 231.318 635.329C225.384 575.282 218.515 515.327 210.713 455.494C210.593 454.574 210.444 453.59 209.814 452.907C208.975 451.996 207.584 451.927 206.345 451.921C198.944 451.883 191.543 451.845 184.142 451.807C186.303 464.069 189.109 476.217 192.544 488.185C193.179 490.397 194.235 492.979 196.501 493.377C204.639 494.806 211.062 501.5 214.41 509.054C217.758 516.608 218.549 525.007 219.297 533.235ZM190.861 320.398C184.508 288.178 179.134 255.766 174.746 223.22C174.498 221.379 174.258 219.471 174.8 217.694C175.916 214.032 179.921 212.114 183.646 211.23C190.928 209.503 198.533 210.079 205.997 210.629C274.237 215.661 342.7 217.674 411.118 216.662C408.397 211.142 402.924 207.378 397.104 205.382C391.283 203.386 385.063 202.942 378.924 202.518C318.698 198.356 258.381 194.456 198.015 195.183C190.63 195.272 183.158 195.442 176.027 197.365C168.896 199.288 162.034 203.161 157.92 209.295C151.437 218.961 153.005 231.73 155.012 243.194C159.711 270.042 165.428 296.712 172.146 323.126C178.385 322.217 184.623 321.308 190.861 320.398ZM337.795 257.425C341.056 257.459 344.445 257.276 347.331 255.757C352.413 253.082 354.669 246.918 355.005 241.185C355.341 235.451 354.209 229.705 354.573 223.973C354.657 222.667 355.386 220.935 356.654 221.263C357.572 227.862 358.489 234.46 359.407 241.058C359.914 244.701 360.441 248.412 362.037 251.726C363.633 255.039 366.502 257.952 370.114 258.646C372.189 259.044 374.355 258.687 376.332 257.944C381.066 256.164 385.033 251.634 384.853 246.58C384.605 239.602 384.356 232.623 384.108 225.645C384.01 222.885 382.983 219.206 380.225 219.351C361.832 220.314 343.385 220.229 325.003 219.096C323.663 219.013 323.309 220.912 323.451 222.248C324.187 229.169 324.922 236.091 325.658 243.012C326.214 248.238 327.4 254.38 332.195 256.531C333.932 257.31 335.89 257.405 337.795 257.425ZM432.126 691.745C431.245 692.362 430.663 693.312 430.127 694.245C427.337 699.101 425.096 704.271 423.458 709.626C455.653 707.377 487.822 704.763 519.958 701.786C521.166 701.674 522.476 701.516 523.343 700.667C523.905 700.116 524.194 699.351 524.466 698.612C525.669 695.344 526.871 692.077 528.074 688.809C528.66 687.219 529.18 685.241 528.035 683.991C527.084 682.953 525.467 682.986 524.064 683.098C494.682 685.452 465.315 687.987 435.965 690.703C434.629 690.826 433.225 690.974 432.126 691.745ZM488.879 493.39C488.009 483.232 486.235 471.832 477.946 465.898C474.711 474.805 471.446 483.847 470.706 493.295C469.966 502.743 472.054 512.812 478.391 519.858C479.282 520.848 480.272 521.809 480.744 523.054C481.216 524.299 480.977 525.943 479.821 526.604C471.206 519.108 467.641 507.087 467.842 495.67C468.044 484.254 471.543 473.184 475.01 462.305C475.772 459.915 473.593 457.4 471.147 456.843C468.701 456.286 466.175 457.103 463.8 457.911C463.338 458.068 463.134 458.596 462.988 459.062C461.345 464.295 459.688 469.844 460.96 475.179C466.441 498.168 465.733 522.295 471.312 545.26C471.518 546.108 471.741 546.974 472.235 547.693C475.935 540.458 479.635 533.224 483.335 525.989C485.074 522.59 486.822 519.166 487.908 515.505C490.018 508.387 489.513 500.787 488.879 493.39ZM619.768 326.524C620.483 327.114 621.442 327.3 622.363 327.403C632.826 328.573 642.7 321.451 648.494 312.66C654.288 303.87 657.025 293.484 660.824 283.665C664.389 274.449 668.948 265.619 674.398 257.376C663.487 267.614 650.055 274.783 638.666 284.487C627.277 294.191 617.585 307.801 618.388 322.741C618.463 324.122 618.701 325.644 619.768 326.524ZM200.716 227.517C202.203 234.037 201.588 241.282 205.2 246.91C208.702 252.365 216.089 254.965 222.236 252.906C228.383 250.847 232.713 244.321 232.221 237.857C232.109 236.388 231.778 234.946 231.447 233.51C230.152 227.885 228.857 222.26 227.562 216.635C227.433 216.075 227.289 215.486 226.892 215.071C226.323 214.476 225.412 214.407 224.589 214.375C216.677 214.073 208.765 213.77 200.852 213.467C200.091 213.438 199.256 213.432 198.664 213.911C197.915 214.519 197.872 215.634 197.97 216.593C198.349 220.333 199.88 223.851 200.716 227.517ZM414.897 233.598C415.086 242.604 420.953 250.435 427.141 256.981C427.745 257.62 428.365 258.262 429.12 258.714C430.341 259.444 431.827 259.616 433.244 259.495C438.024 259.084 442.113 255.469 444.131 251.116C446.148 246.763 446.376 241.784 445.941 237.006C445.507 232.228 444.449 227.522 444.023 222.744C443.937 221.785 443.585 220.534 442.623 220.538C434.164 220.57 425.705 220.602 417.246 220.635C416.164 220.639 415.017 220.661 414.103 221.24C413.189 221.819 412.679 223.172 413.357 224.015C415.428 226.592 414.827 230.293 414.897 233.598ZM543.533 512.173C520.357 511.765 499.111 525.504 482.901 542.072C480.169 544.865 477.501 547.795 475.682 551.253C475.36 551.865 475.106 552.717 475.634 553.164C475.914 553.402 476.316 553.416 476.684 553.415C490.167 553.367 503.134 547.672 514.089 539.811C525.044 531.95 534.274 521.974 543.533 512.173ZM256.761 251.271C260.072 249.365 262.203 245.57 262.106 241.751C262.057 239.814 261.485 237.935 261.025 236.053C259.84 231.21 259.38 226.191 259.663 221.214C259.724 220.154 259.814 219.065 259.496 218.052C259.177 217.039 258.332 216.108 257.271 216.05C248.514 215.572 239.756 215.093 230.998 214.615C230.683 214.598 230.339 214.589 230.085 214.775C229.69 215.064 229.713 215.651 229.786 216.134C230.863 223.261 234.312 229.974 234.533 237.179C234.615 239.829 234.26 242.546 235.003 245.092C235.953 248.353 238.669 250.927 241.82 252.195C244.97 253.464 248.505 253.536 251.848 252.933C253.558 252.625 255.255 252.137 256.761 251.271ZM607.196 348.84C613.539 350.629 619.147 354.37 625.3 356.73C638.941 361.962 655.178 359.778 666.951 351.127C672.007 347.412 677.062 343.697 682.117 339.982C675.955 341.441 669.581 341.999 663.259 341.635C652.695 341.026 642.263 337.862 631.712 338.655C622.736 339.329 614.007 342.955 607.196 348.84ZM426.073 300.03C424.826 293.124 423.58 286.218 422.333 279.312C420.662 270.056 418.991 260.801 417.32 251.545C417.202 250.888 417.058 250.184 416.572 249.727C416.085 249.27 415.136 249.269 414.871 249.881C413.202 253.733 409.785 256.786 405.771 258.013C403.335 258.757 403.127 262.08 403.41 264.611C405.407 282.469 407.772 300.285 410.501 318.046C411.295 310.782 417.52 304.474 424.773 303.583C426.184 303.41 426.326 301.429 426.073 300.03ZM292.818 243.859C292.043 236.414 291.066 228.99 289.887 221.598C289.644 220.074 288.995 218.174 287.453 218.106C279.482 217.756 271.51 217.407 263.539 217.057C263.255 217.045 262.955 217.035 262.703 217.169C262.06 217.51 262.165 218.448 262.355 219.151C264.193 225.977 265.169 233.034 265.251 240.102C265.271 241.841 265.251 243.647 265.979 245.227C267.051 247.552 269.49 248.886 271.808 249.972C275.847 251.864 280.264 253.528 284.672 252.841C289.08 252.154 293.28 248.296 292.818 243.859ZM296.265 243.901C297.069 247.796 298.543 252.327 302.359 253.447C305.58 254.392 309.062 254.653 312.293 253.742C315.523 252.831 318.469 250.662 319.915 247.633C320.944 245.477 321.176 243.036 321.31 240.651C321.677 234.117 321.425 227.547 320.557 221.06C320.51 220.713 320.459 220.356 320.283 220.052C319.818 219.247 318.722 219.134 317.792 219.114C309.675 218.937 301.558 218.76 293.441 218.583C292.778 218.569 291.852 219.258 292.413 219.612C293.321 227.762 294.607 235.87 296.265 243.901ZM569.01 324.515C562.669 338.851 560.802 355.127 563.731 370.526C564.901 376.678 567.202 383.206 572.527 386.501C574.094 387.471 576.706 387.757 577.286 386.008C584.022 365.685 580.879 342.333 569.01 324.515ZM158.017 504.504C160.707 506.35 163.739 507.695 166.912 508.451C170.923 509.407 175.087 509.418 179.208 509.517C188.839 509.749 198.457 510.487 208.01 511.727C209.342 511.899 210.444 510.457 210.409 509.114C210.374 507.77 209.556 506.584 208.709 505.54C203.614 499.264 196.174 494.938 188.199 493.615C182.549 492.678 176.773 493.203 171.048 493.039C165.324 492.874 159.349 491.905 154.784 488.447C154.542 491.735 154.523 495.04 154.726 498.331C154.808 499.663 154.943 501.044 155.622 502.193C156.191 503.156 157.095 503.871 158.017 504.504ZM389.709 249.084C390.607 250.714 392.05 251.971 393.528 253.103C395.129 254.33 396.859 255.479 398.826 255.929C403.668 257.038 408.62 253.45 410.661 248.921C412.702 244.391 412.495 239.199 412.023 234.254C411.665 230.515 411.179 226.788 410.564 223.082C410.462 222.465 410.343 221.819 409.955 221.327C409.273 220.465 408.026 220.365 406.927 220.336C401.024 220.179 395.12 220.022 389.216 219.865C387.909 219.831 386.053 220.456 386.441 221.704C388.178 227.294 388.936 233.187 388.669 239.034C388.513 242.447 388.06 246.092 389.709 249.084ZM598.638 352.869C604.906 342.754 606.782 330.018 603.697 318.526C600.97 308.365 594.631 299.363 592.621 289.036C587.937 303.25 583.22 318.551 587.457 332.904C589.629 340.26 594.016 346.748 598.638 352.869ZM494.799 512.005C513.441 507.203 530.649 496.967 543.765 482.876C547.689 478.66 551.706 474.531 555.813 470.492C545.753 471.871 535.932 474.982 526.914 479.647C513.155 486.764 501.082 497.846 494.799 512.005ZM608.376 388.268C615.232 381.825 622.088 375.381 628.945 368.937C605.758 371.893 584.104 385.291 571.111 404.721C574.46 407.301 579.265 405.782 583.171 404.166C588.605 401.919 594.085 399.647 598.922 396.305C602.328 393.951 605.359 391.104 608.376 388.268ZM157.425 529.096C157.482 529.691 157.553 530.321 157.913 530.798C158.703 531.843 160.312 531.586 161.568 531.219C175.956 527.015 190.143 522.119 204.061 516.555C205.065 516.154 206.235 515.519 206.255 514.439C195.578 513.698 184.9 512.958 174.222 512.217C171.61 512.036 168.988 511.853 166.428 511.307C162.576 510.485 158.904 508.834 155.733 506.499C155.965 514.05 156.695 521.576 157.425 529.096ZM494.733 456.849C493.871 457.471 493.523 458.569 493.227 459.589C492.21 463.092 491.189 466.808 492.133 470.331C492.614 472.126 493.579 473.747 494.533 475.342C497.172 479.754 499.812 484.165 502.451 488.577C502.697 488.987 502.963 489.418 503.387 489.641C504.647 490.302 505.891 488.748 506.476 487.45C510.275 479.025 514.159 470.116 513.298 460.915C513.165 459.5 512.781 457.894 511.517 457.246C510.936 456.948 510.262 456.91 509.61 456.877C505.697 456.683 501.784 456.489 497.872 456.294C496.789 456.241 495.611 456.213 494.733 456.849ZM554.537 425.658C554.437 431.588 559.61 436.546 565.284 438.272C570.958 439.998 577.047 439.255 582.944 438.622C593.312 437.509 604.278 436.591 612.802 430.583C614.693 429.25 616.481 427.605 617.325 425.451C618.643 422.09 617.318 418.122 614.841 415.496C612.363 412.87 608.929 411.369 605.491 410.268C593.206 406.335 579.565 406.789 567.568 411.528C561.239 414.028 554.652 418.854 554.537 425.658ZM156.448 486.231C157.565 487.273 159.829 487.539 160.264 486.075C161.756 481.059 165.111 476.758 169.062 473.326C173.014 469.894 177.569 467.244 182.095 464.615C183.316 463.906 183.239 462.147 183.003 460.755C182.546 458.059 182.089 455.363 181.632 452.667C181.516 451.984 181.288 451.17 180.619 450.987C180.072 450.837 179.532 451.207 179.085 451.556C175.838 454.092 172.592 456.627 169.345 459.162C162.84 464.242 155.869 470.07 154.458 478.202C153.967 481.035 154.346 484.27 156.448 486.231ZM181.773 468.083C174.482 472.636 166.764 477.677 163.451 485.609C163.244 486.103 163.054 486.622 163.07 487.157C163.102 488.212 163.953 489.102 164.928 489.507C165.902 489.913 166.988 489.931 168.044 489.943C174.286 490.017 180.528 490.09 186.769 490.164C187.073 490.167 187.402 490.163 187.642 489.976C188.02 489.681 187.982 489.107 187.907 488.633C186.911 482.341 185.915 476.049 184.92 469.756C184.778 468.861 184.489 467.79 183.616 467.547C182.98 467.369 182.333 467.733 181.773 468.083ZM491.879 457.235C487.283 456.05 482.326 456.308 477.879 457.965C478.74 460.792 480.266 463.413 482.299 465.556C489.151 472.78 491.177 483.268 491.954 493.194C492.37 498.495 492.516 503.818 492.393 509.135C495.403 504.492 498.412 499.849 501.422 495.206C501.721 494.745 502.03 494.256 502.062 493.707C502.095 493.157 501.846 492.634 501.593 492.145C498.623 486.41 494.259 481.465 491.503 475.624C488.748 469.783 487.903 462.325 491.879 457.235ZM183.982 214.203C181.447 214.606 178.556 215.25 177.352 217.516C176.52 219.083 176.766 220.979 177.033 222.733C178.135 229.957 179.236 237.182 180.338 244.406C185.976 234.268 191.255 223.936 196.532 213.607C195.555 212.502 193.824 212.642 192.368 212.873C189.573 213.317 186.777 213.76 183.982 214.203ZM530.981 459.496C531.762 460.531 533.799 459.385 533.32 458.18C540.849 460.342 549.057 458.803 556.169 455.519C563.281 452.234 569.49 447.313 575.601 442.412C573.035 442.053 570.468 441.695 567.902 441.336C567.378 441.263 566.699 441.273 566.499 441.762C565.117 445.145 562.142 447.679 558.857 449.279C555.571 450.879 551.956 451.654 548.382 452.416C545.902 452.944 543.421 453.473 540.941 454.001C537.099 454.819 532.767 455.998 530.981 459.496ZM394.766 407.11C395.248 406.988 395.766 406.843 396.074 406.452C396.553 405.847 396.313 404.976 396.188 404.214C396.062 403.452 396.255 402.438 397.016 402.306C397.709 402.444 398.029 403.267 398.046 403.973C398.063 404.68 397.907 405.417 398.163 406.076C398.732 407.544 400.758 407.602 402.319 407.403C403.243 407.285 404.167 407.167 405.091 407.05C405.38 407.013 405.689 406.967 405.905 406.77C406.588 406.144 405.637 405.122 405.425 404.22C405.262 403.522 405.588 402.768 405.374 402.085C405.01 400.921 403.462 400.742 402.242 400.783C392.917 401.092 383.592 401.402 374.266 401.711C374.426 403.476 374.909 405.211 375.684 406.804C375.85 407.148 376.047 407.502 376.378 407.692C376.715 407.885 377.126 407.872 377.513 407.854C379.831 407.747 382.149 407.639 384.467 407.531C384.665 407.522 384.872 407.51 385.037 407.401C385.46 407.121 385.313 406.476 385.119 406.008C384.784 405.201 384.449 404.395 384.115 403.589C383.823 402.887 385.093 402.472 385.628 403.011C386.162 403.551 386.182 404.397 386.434 405.113C386.957 406.6 388.538 407.507 390.102 407.698C391.667 407.889 393.238 407.498 394.766 407.11ZM530.199 456.476C530.707 455.935 529.586 455.37 528.85 455.46C524.65 455.975 520.451 456.49 516.252 457.005C515.691 457.074 514.949 457.382 515.083 457.931C516.462 463.581 515.945 469.678 513.632 475.014C513.192 476.031 512.903 477.583 513.957 477.924C518.336 470.064 523.82 462.821 530.199 456.476ZM387.121 411.372C386.989 410.915 386.841 410.436 386.494 410.113C386.099 409.745 385.529 409.652 384.993 409.593C382.242 409.292 379.438 409.481 376.751 410.148C377.592 412.874 378.432 415.599 379.272 418.325C379.432 418.841 379.646 419.421 380.147 419.623C380.404 419.727 380.691 419.709 380.967 419.69C383.683 419.499 386.4 419.309 389.116 419.118C388.526 416.517 387.861 413.934 387.121 411.372ZM369.435 420.902C369.737 421.067 370.106 421.017 370.445 420.961C372.905 420.56 375.364 420.16 377.823 419.759C376.936 416.915 376.048 414.071 375.161 411.227C375.031 410.81 374.869 410.352 374.484 410.144C374.18 409.98 373.811 410.015 373.467 410.055C371.275 410.31 369.082 410.565 366.889 410.82C366.477 410.868 365.989 410.971 365.836 411.357C365.732 411.619 365.83 411.913 365.928 412.177C366.894 414.784 367.86 417.391 368.826 419.998C368.955 420.346 369.108 420.724 369.435 420.902ZM397.066 409.541C396.546 409.089 395.776 409.12 395.09 409.177C392.924 409.355 390.758 409.533 388.592 409.711C389.24 412.486 390.055 415.223 391.032 417.9C391.16 418.251 391.305 418.621 391.603 418.846C391.975 419.127 392.485 419.111 392.951 419.083C394.429 418.994 395.908 418.905 397.386 418.816C398.067 418.775 398.895 418.629 399.124 417.987C399.233 417.678 399.162 417.337 399.091 417.017C398.641 415.014 398.191 413.011 397.742 411.009C397.621 410.474 397.48 409.901 397.066 409.541ZM384.145 429.48C383.931 429.514 383.703 429.554 383.547 429.705C383.243 429.998 383.382 430.502 383.542 430.893C384.111 432.285 384.68 433.678 385.249 435.07C385.46 435.587 385.698 436.136 386.169 436.435C386.605 436.711 387.153 436.717 387.668 436.714C389.634 436.702 391.599 436.69 393.564 436.679C393.852 436.677 394.164 436.667 394.386 436.483C394.788 436.151 394.638 435.513 394.453 435.026C393.697 433.033 392.941 431.04 392.185 429.047C391.942 428.407 391.052 428.398 390.376 428.504C388.299 428.829 386.222 429.155 384.145 429.48ZM400.68 409.147C400.267 409.148 399.803 409.171 399.524 409.477C399.188 409.845 399.295 410.421 399.422 410.903C399.981 413.015 400.54 415.128 401.098 417.24C401.197 417.611 401.311 418.008 401.609 418.251C402.005 418.574 402.577 418.513 403.082 418.436C404.945 418.152 406.808 417.867 408.671 417.583C408.471 415.42 408.128 413.272 407.644 411.155C407.493 410.493 407.284 409.771 406.711 409.407C406.282 409.135 405.742 409.128 405.234 409.13C403.716 409.136 402.198 409.141 400.68 409.147ZM404.472 436.43C403.869 434.238 403.265 432.045 402.661 429.852C402.431 429.015 402.104 428.066 401.294 427.75C400.895 427.595 400.451 427.629 400.025 427.666C398.037 427.839 396.048 428.012 394.06 428.185C394.584 430.149 395.205 432.087 395.919 433.99C396.279 434.948 396.824 436.034 397.834 436.197C400.026 436.552 402.262 436.63 404.472 436.43ZM407.933 436.278C409.735 436.425 411.713 436.525 413.17 435.454C412.538 432.998 411.907 430.542 411.275 428.086C411.133 427.533 410.943 426.917 410.436 426.654C410.064 426.46 409.617 426.513 409.202 426.571C407.416 426.82 405.631 427.068 403.845 427.317C404.27 429.917 404.99 432.468 405.988 434.906C406.141 435.281 406.314 435.669 406.634 435.915C406.996 436.194 407.479 436.241 407.933 436.278ZM568.521 401.314C569.897 398.489 571.274 395.664 572.65 392.839C572.795 392.542 572.943 392.221 572.891 391.895C572.839 391.578 572.608 391.324 572.387 391.09C570.428 389.019 568.469 386.947 566.509 384.875C565.695 385.987 565.789 387.499 565.919 388.871C566.345 393.374 566.772 397.878 567.198 402.382C567.798 402.515 568.252 401.866 568.521 401.314ZM409.913 408.82C409.656 408.802 409.363 408.797 409.183 408.982C408.982 409.19 409.026 409.525 409.085 409.808C409.473 411.678 409.86 413.548 410.248 415.418C410.392 416.111 410.562 416.852 411.085 417.329C412.777 418.872 416.037 416.218 417.61 417.883C417.887 415.227 417.688 412.523 417.026 409.937C416.979 409.755 416.924 409.563 416.785 409.438C416.624 409.293 416.39 409.271 416.174 409.256C414.087 409.111 412 408.966 409.913 408.82ZM370.981 422.689C370.755 422.72 370.52 422.754 370.334 422.886C369.923 423.178 369.939 423.784 369.998 424.285C370.155 425.622 370.329 427.007 371.028 428.158C371.728 429.308 373.11 430.16 374.411 429.812C376.274 429.312 378.138 428.812 380.002 428.312C379.921 426.531 379.56 424.763 378.937 423.092C378.782 422.675 378.586 422.236 378.203 422.01C377.805 421.776 377.308 421.831 376.85 421.893C374.894 422.158 372.937 422.424 370.981 422.689ZM414.449 407.06C415.01 406.975 415.608 406.873 416.025 406.488C417.266 405.341 415.847 403.01 416.853 401.653C417.246 401.122 416.284 400.648 415.625 400.676C412.681 400.8 409.737 400.925 406.793 401.049C406.907 402.267 407.119 403.476 407.425 404.66C407.767 405.98 409.054 406.883 410.386 407.176C411.717 407.468 413.101 407.265 414.449 407.06ZM390.655 422.917C390.276 421.096 387.838 420.67 386.009 421.011C384.181 421.352 382.138 422.012 380.584 420.99C380.683 422.912 381.132 424.817 381.903 426.581C382.065 426.951 382.261 427.338 382.613 427.537C383.01 427.761 383.501 427.69 383.951 427.612C385.753 427.301 387.556 426.99 389.359 426.678C390.252 426.524 391.43 425.817 390.96 425.041C390.585 424.423 390.802 423.624 390.655 422.917ZM379.519 430.393C378.046 430.642 376.573 430.892 375.1 431.141C374.303 431.276 373.32 431.596 373.235 432.4C373.02 434.434 375.046 436.073 377.05 436.478C379.054 436.883 381.134 436.487 383.169 436.688C383.085 434.96 382.723 433.245 382.102 431.63C381.954 431.246 381.778 430.849 381.452 430.598C380.923 430.19 380.177 430.281 379.519 430.393ZM418.334 426.448C416.38 426.241 414.393 426.345 412.47 426.754C413.533 429.284 414.287 431.943 414.712 434.654C414.906 435.897 416.681 435.921 417.9 435.611C418.355 435.495 418.851 435.35 419.111 434.96C419.334 434.623 419.324 434.188 419.305 433.784C419.2 431.552 419.096 429.319 418.991 427.087C418.985 426.946 418.975 426.797 418.894 426.681C418.775 426.51 418.542 426.47 418.334 426.448ZM386.419 446.449C388.262 444.609 387.317 440.896 384.819 440.161C382.321 439.425 379.516 442.035 380.069 444.58C380.64 447.21 384.513 448.35 386.419 446.449ZM400.905 424.885C402.077 423.355 400.322 421.096 398.423 420.763C396.524 420.43 394.6 421.158 392.672 421.13C391.962 421.119 391.932 422.188 392.163 422.859C392.462 423.728 392.76 424.597 393.059 425.466C393.181 425.822 393.402 426.248 393.777 426.225C395.152 426.139 396.526 426.053 397.901 425.967C398.998 425.898 400.236 425.758 400.905 424.885ZM419.904 439.659C419.762 439.275 419.552 438.9 419.221 438.658C418.924 438.442 418.553 438.35 418.188 438.306C415.303 437.958 412.503 440.836 412.929 443.71C414.157 445.17 416.469 445.573 418.118 444.615C419.767 443.657 420.563 441.449 419.904 439.659ZM402.096 422.282C402.033 423.546 403.145 424.625 404.363 424.966C405.582 425.307 406.879 425.087 408.125 424.865C408.763 424.751 409.478 424.587 409.812 424.031C410.524 422.847 409.11 420.676 410.415 420.222C409.539 420.101 408.664 419.981 407.788 419.861C406.631 419.702 405.435 419.546 404.313 419.866C403.19 420.186 402.155 421.116 402.096 422.282ZM412.565 423.9C413.892 425.053 416.113 424.894 417.346 423.641C418.579 422.387 418.74 420.263 417.81 418.77C415.487 419.201 413.165 419.632 410.842 420.062C411.135 421.46 411.487 422.962 412.565 423.9ZM592.018 401.702C590.209 402.372 588.401 403.042 586.592 403.712C585.694 404.045 584.783 404.384 584.005 404.943C586.963 406.097 590.694 404.589 592.018 401.702ZM423.927 258.173C423.88 257.374 423.035 256.721 422.25 256.877C422.3 257.69 423.111 258.373 423.921 258.286L423.927 258.173Z" fill="#00160A"/>
</svg>
